<?xml version="1.0" encoding="UTF-8" standalone="no"?>
<!-- Created with Inkscape (http://www.inkscape.org/) -->

<svg
   width="300mm"
   height="150mm"
   viewBox="0 0 300 150"
   version="1.1"
   id="svg5"
   inkscape:version="1.1.2 (b8e25be833, 2022-02-05)"
   sodipodi:docname="40dpt_Logo.svg"
   inkscape:export-filename="C:\Users\maximilian.malik\Documents\Berufsschule\Ausbildungsjahr #3\Lernfeld 12\40dptCouter\Logos\40dpt_Logo.png"
   inkscape:export-xdpi="96"
   inkscape:export-ydpi="96"
   xmlns:inkscape="http://www.inkscape.org/namespaces/inkscape"
   xmlns:sodipodi="http://sodipodi.sourceforge.net/DTD/sodipodi-0.dtd"
   xmlns="http://www.w3.org/2000/svg"
   xmlns:svg="http://www.w3.org/2000/svg">
  <sodipodi:namedview
     id="namedview7"
     pagecolor="#505050"
     bordercolor="#eeeeee"
     borderopacity="1"
     inkscape:pageshadow="0"
     inkscape:pageopacity="0"
     inkscape:pagecheckerboard="0"
     inkscape:document-units="mm"
     showgrid="false"
     inkscape:zoom="0.99479889"
     inkscape:cx="613.69188"
     inkscape:cy="257.33845"
     inkscape:window-width="2560"
     inkscape:window-height="1377"
     inkscape:window-x="-8"
     inkscape:window-y="-8"
     inkscape:window-maximized="1"
     inkscape:current-layer="layer1" />
  <defs
     id="defs2">
    <rect
       x="196.71416"
       y="252.9182"
       width="615.12207"
       height="516.76495"
       id="rect8843" />
    <rect
       x="226.37741"
       y="307.56104"
       width="62.44894"
       height="268.53043"
       id="rect4304" />
  </defs>
  <g
     inkscape:label="Hintergrund"
     inkscape:groupmode="layer"
     id="layer1"
     style="display:inline"
     sodipodi:insensitive="true">
    <text
       xml:space="preserve"
       transform="scale(0.26458333)"
       id="text4302"
       style="font-size:40px;line-height:1.25;font-family:'Bauhaus 93';-inkscape-font-specification:'Bauhaus 93, Normal';white-space:pre;shape-inside:url(#rect4304)" />
    <rect
       style="opacity:0.511628;fill:#5d536c;fill-opacity:1;stroke:#000000;stroke-width:0;stroke-linecap:butt;stroke-linejoin:round;stroke-opacity:1;paint-order:markers stroke fill"
       id="rect91383"
       width="299.49246"
       height="150.09471"
       x="0.25200033"
       y="1.5474911e-06" />
    <rect
       style="display:inline;opacity:1;fill:#5d536c;fill-opacity:1;stroke:#000000;stroke-width:0;stroke-linecap:butt;stroke-linejoin:round;stroke-opacity:1;paint-order:markers stroke fill"
       id="rect71047"
       width="167.21581"
       height="167.21579"
       x="84.227585"
       y="-83.400665"
       transform="matrix(0.8948682,0.44633049,-0.8948682,0.44633049,0,0)" />
  </g>
  <g
     inkscape:groupmode="layer"
     id="layer2"
     inkscape:label="Schriftzug"
     style="display:inline"
     sodipodi:insensitive="true">
    <text
       xml:space="preserve"
       transform="scale(0.26458333)"
       id="text8841"
       style="font-size:40px;line-height:1.25;font-family:'Bauhaus 93';-inkscape-font-specification:'Bauhaus 93, Normal';white-space:pre;shape-inside:url(#rect8843)" />
    <path
       d="m 63.599035,91.931601 q 0,0.746982 -1.24497,0.995977 -0.896379,0.149396 -2.489942,0.0498 -2.240947,-0.149396 -1.892355,-0.149396 -1.942154,0 -1.942154,1.942154 0,1.195172 0.149396,3.635315 0.149397,2.390339 0.149397,3.585509 0,1.74296 -1.543764,1.74296 -17.180596,0 -18.076974,-0.44819 -0.896379,-0.39839 -0.896379,-1.04577 0,-0.74698 0.597586,-3.685113 0.647384,-2.938131 0.647384,-4.282699 0,-1.643361 -1.842556,-1.643361 -3.336522,0 -10.009565,0.199195 -6.623244,0.199195 -9.959765,0.199195 -3.983906,0 -3.983906,-3.137326 0,-1.593562 -0.0498,-4.730888 -0.0498,-3.187125 -0.0498,-4.780688 0,-1.493965 1.543764,-3.137326 7.270628,-7.768617 10.60715,-12.449707 1.593562,-2.240947 10.806345,-17.479388 1.195172,-2.290747 3.884309,-6.274653 0.697184,-0.84658 1.493965,-0.84658 1.195172,0 7.370226,1.792758 6.224854,1.792758 8.465801,1.792758 1.593563,0 1.593563,2.041752 0,1.942154 -0.44819,5.876261 -0.448189,3.884309 -0.448189,5.876262 v 20.965306 q 0.946177,0 3.286722,-0.298793 2.091551,-0.298792 3.236924,-0.298792 0.946178,0 0.946178,1.145373 0,1.045775 -0.149397,3.137326 -0.0996,2.09155 -0.0996,3.187125 0,1.095574 0.149396,3.286722 0.199195,2.14135 0.199195,3.236924 z M 38.998415,60.458742 q 0,-0.298793 -0.348592,-0.298793 -0.44819,0 -0.896379,0.647385 -3.187125,5.129279 -6.37425,10.258558 -3.83451,5.926061 -7.469824,9.511576 2.738935,0 13.943672,-0.697183 0.0996,-1.991953 0.697183,-9.810369 0.44819,-6.175055 0.44819,-9.611174 z"
       id="path71593"
       style="font-size:101.988px;line-height:1.25;font-family:'Berlin Sans FB Demi';-inkscape-font-specification:'Berlin Sans FB Demi, Normal';fill:#c8ab37;stroke-width:0.531185" />
    <path
       d="m 127.29174,73.057845 q 0,12.848098 -8.31641,22.060881 -8.6152,9.561374 -21.363696,9.561374 -12.7485,0 -21.313898,-9.561374 -8.366203,-9.212783 -8.366203,-22.060881 0,-12.897896 8.366203,-22.011081 8.565398,-9.411979 21.313898,-9.411979 12.748496,0 21.313896,9.411979 8.36621,9.162984 8.36621,22.011081 z m -18.47537,0 q 0,-5.129279 -2.98793,-8.91399 -3.18712,-4.033705 -8.216806,-4.033705 -5.129279,0 -8.266605,3.983906 -2.938131,3.685114 -2.938131,8.963789 0,5.179078 2.938131,9.013588 3.187125,4.133303 8.266605,4.133303 4.880286,0 8.167006,-4.2329 3.03773,-3.884309 3.03773,-8.913991 z"
       id="path71595"
       style="font-size:101.988px;line-height:1.25;font-family:'Berlin Sans FB Demi';-inkscape-font-specification:'Berlin Sans FB Demi, Normal';fill:#c8ab37;stroke-width:0.531185" />
    <path
       d="m 186.75153,32.471801 q 0,-1.095574 -0.39839,3.286723 -0.54778,5.527669 -0.84658,14.142867 -0.39839,9.76057 -0.39839,22.210277 0,20.566915 1.14538,29.281712 0.0996,0.94618 0.0996,1.19517 0,0.54779 -0.74698,0.64738 -1.79276,0.249 -13.19669,0.249 -2.68914,0 -3.08753,-1.04578 -0.0996,-1.89235 -0.19919,-3.784707 -0.0498,-0.398391 -0.39839,-0.796781 -0.29879,0.149396 -0.74698,0.597585 -5.37828,5.278673 -13.44569,5.278673 -10.50755,0 -16.832,-7.370223 -6.02566,-7.021635 -6.02566,-17.728383 0,-10.856144 5.92606,-17.877779 6.27465,-7.469824 16.9316,-7.469824 7.51963,0 11.70273,4.780687 0.69718,0.796782 0.99597,0.796782 0.44819,0 0.44819,-1.29477 0,-3.83451 -0.19919,-11.45373 -0.1992,-7.619221 -0.1992,-11.403932 0,-1.444166 0.79678,-1.643361 3.18713,-0.149397 8.7646,-0.597586 9.95976,-1.244971 8.81439,-1.244971 1.09557,0 1.09557,1.244971 z m -18.77415,45.765122 q 0,-3.934107 -2.73894,-6.872238 -2.73894,-2.987929 -6.62324,-2.987929 -4.08351,0 -6.52365,2.987929 -2.39034,2.938131 -2.39034,7.071434 0,4.033705 2.44014,6.822439 2.48994,2.98793 6.47385,2.98793 3.9839,0 6.67304,-2.98793 2.68914,-2.987929 2.68914,-7.021635 z"
       id="path71597"
       style="font-size:101.988px;line-height:1.25;font-family:'Berlin Sans FB Demi';-inkscape-font-specification:'Berlin Sans FB Demi, Normal';fill:#6f916f;stroke-width:0.531185" />
    <path
       d="m 249.04986,79.183101 q 0,10.656949 -6.27465,17.678584 -6.47385,7.270625 -16.9814,7.270625 -3.83451,0 -8.21681,-1.89235 -4.3823,-1.89236 -3.98391,-1.89236 -0.64738,0 -0.64738,1.49397 0,2.53974 0.24899,7.61922 0.249,5.12928 0.249,7.66902 0,1.59356 -1.64336,1.59356 l -10.15897,0.0498 q -3.43611,0 -4.43209,-0.24899 -1.49397,-0.3486 -1.49397,-1.84256 l 0.0996,-38.345099 q 0,-11.603127 -1.74296,-19.570939 -0.0996,-0.497988 -0.0996,-0.84658 0,-0.746983 0.59758,-0.995977 1.94216,-0.746982 7.42003,-1.593562 5.32847,-0.84658 7.71881,-0.84658 1.94216,0 2.19115,2.589539 0.2988,2.53974 0.69719,2.53974 -0.49799,0 4.2329,-2.689137 4.78068,-2.738935 8.66499,-2.738935 10.80635,0 17.2802,7.121232 6.27465,6.872238 6.27465,17.877779 z m -18.47537,-0.0996 q 0,-3.983907 -2.44014,-6.971836 -2.63934,-3.137326 -6.52365,-3.137326 -3.9839,0 -6.37425,3.137326 -2.09155,2.838533 -2.09155,6.971836 0,4.2329 2.19115,7.021634 2.34055,3.037729 6.47385,3.037729 8.76459,0 8.76459,-10.059363 z"
       id="path71599"
       style="font-size:101.988px;line-height:1.25;font-family:'Berlin Sans FB Demi';-inkscape-font-specification:'Berlin Sans FB Demi, Normal';fill:#6f916f;stroke-width:0.531185" />
    <path
       d="m 288.83913,88.545281 q 0,1.493965 -0.39839,4.531693 -0.34859,3.037729 -0.34859,4.481895 0,1.394367 -0.2988,1.792757 -0.29879,0.398391 -1.64336,1.145374 -6.42405,3.53572 -14.24246,3.53572 -14.39186,0 -14.39186,-11.005545 0,-3.286722 0.24899,-9.860168 0.249,-6.623244 0.249,-9.909966 0,-2.191149 -2.53975,-2.191149 -0.19919,0 -0.64738,0 -0.44819,0.0498 -0.64738,0.0498 -1.89236,0 -1.89236,-1.344568 0,-0.796781 0.0996,-2.440143 0.14939,-1.643361 0.14939,-2.440142 0,-1.045776 -0.14939,-3.187125 -0.0996,-2.14135 -0.0996,-3.187125 0,-0.995977 3.18712,-1.095574 1.79276,-0.0498 1.94216,-0.995977 0.29879,-1.892355 0.19919,-5.975859 -0.19919,-6.424049 -0.19919,-6.125256 0,-5.776664 1.09557,-5.776664 1.34457,0 3.83451,0.597586 2.83854,0.647385 3.93411,0.746982 2.53974,0.348592 7.66902,0.946178 1.24497,0.0996 1.24497,0.84658 0,1.991953 -0.34859,6.025658 -0.29879,4.033705 -0.29879,6.075457 0,2.440143 1.44416,2.440143 1.74296,0 5.27868,-0.149397 3.53571,-0.149396 5.32847,-0.149396 1.09558,0 1.09558,0.746982 0,1.145373 -0.249,3.436119 -0.24899,2.290746 -0.24899,3.436119 0,1.195172 0.0498,3.485918 0.0498,2.290746 0.0498,3.485918 0,1.045776 -1.44417,1.045776 -0.99598,0 -3.33652,-0.0498 -2.34055,-0.0996 -3.33652,-0.0996 h -3.73492 q -0.74698,0 -0.74698,2.191149 0,1.195171 0,3.535716 0.0498,2.390344 0.0498,3.535717 0,4.183102 0.94618,5.776664 1.34457,2.14135 5.27867,2.14135 1.24498,0 3.53572,-0.547787 2.34055,-0.597586 3.28672,-0.597586 1.04578,0 1.04578,1.095574 z"
       id="path71601"
       style="font-size:101.988px;line-height:1.25;font-family:'Berlin Sans FB Demi';-inkscape-font-specification:'Berlin Sans FB Demi, Normal';fill:#6f916f;stroke-width:0.531185" />
  </g>
</svg>
