<?xml version="1.0" encoding="UTF-8" standalone="no"?>
<!-- Created with Inkscape (http://www.inkscape.org/) -->

<svg
   width="48"
   height="48"
   viewBox="0 0 12.7 12.7"
   version="1.1"
   id="svg5"
   inkscape:version="1.1.2 (b8e25be833, 2022-02-05)"
   sodipodi:docname="Kalender.svg"
   xmlns:inkscape="http://www.inkscape.org/namespaces/inkscape"
   xmlns:sodipodi="http://sodipodi.sourceforge.net/DTD/sodipodi-0.dtd"
   xmlns="http://www.w3.org/2000/svg"
   xmlns:svg="http://www.w3.org/2000/svg">
  <sodipodi:namedview
     id="namedview7"
     pagecolor="#505050"
     bordercolor="#eeeeee"
     borderopacity="1"
     inkscape:pageshadow="0"
     inkscape:pageopacity="0"
     inkscape:pagecheckerboard="0"
     inkscape:document-units="mm"
     showgrid="false"
     units="px"
     inkscape:zoom="20.496745"
     inkscape:cx="27.784899"
     inkscape:cy="26.931105"
     inkscape:window-width="2560"
     inkscape:window-height="1377"
     inkscape:window-x="-8"
     inkscape:window-y="-8"
     inkscape:window-maximized="1"
     inkscape:current-layer="layer1" />
  <defs
     id="defs2" />
  <g
     inkscape:label="Ebene 1"
     inkscape:groupmode="layer"
     id="layer1"
     style="opacity:0.5">
    <g
       id="g4111"
       inkscape:export-filename="C:\Users\maximilian.malik\Documents\Berufsschule\Ausbildungsjahr #3\Lernfeld 12\gui\40dpt-Courter\Logos\Kalender.png"
       inkscape:export-xdpi="96"
       inkscape:export-ydpi="96">
      <path
         id="rect2588"
         style="opacity:1;fill:#000000;stroke:#000000;stroke-width:3.98362;stroke-linejoin:round;stroke-miterlimit:4;stroke-dasharray:none;stroke-opacity:0;paint-order:markers stroke fill"
         d="M 9.5839844 6.9980469 C 8.1514643 6.9980469 6.9980469 8.1514643 6.9980469 9.5839844 L 6.9980469 38.416016 C 6.9980469 39.848536 8.1514643 41.001953 9.5839844 41.001953 L 38.416016 41.001953 C 39.848536 41.001953 41.001953 39.848536 41.001953 38.416016 L 41.001953 9.5839844 C 41.001953 8.1514643 39.848536 6.9980469 38.416016 6.9980469 L 37.640625 6.9980469 L 37.640625 10.212891 C 37.640625 10.766979 37.194713 11.212891 36.640625 11.212891 C 36.086537 11.212891 35.640625 10.766979 35.640625 10.212891 L 35.640625 6.9980469 L 29.675781 6.9980469 L 29.675781 10.212891 C 29.675781 10.766979 29.229869 11.212891 28.675781 11.212891 C 28.121693 11.212891 27.675781 10.766979 27.675781 10.212891 L 27.675781 6.9980469 L 20.345703 6.9980469 L 20.345703 10.212891 C 20.345703 10.766979 19.899791 11.212891 19.345703 11.212891 C 18.791615 11.212891 18.345703 10.766979 18.345703 10.212891 L 18.345703 6.9980469 L 12.136719 6.9980469 L 12.136719 10.212891 C 12.136719 10.766979 11.690807 11.212891 11.136719 11.212891 C 10.582631 11.212891 10.136719 10.766979 10.136719 10.212891 L 10.136719 6.9980469 L 9.5839844 6.9980469 z M 11.830078 14.929688 L 36.169922 14.929688 C 36.756212 14.929688 37.228516 15.401991 37.228516 15.988281 L 37.228516 36.548828 C 37.228516 37.135119 36.756212 37.605469 36.169922 37.605469 L 11.830078 37.605469 C 11.243788 37.605469 10.771484 37.135119 10.771484 36.548828 L 10.771484 15.988281 C 10.771484 15.401991 11.243788 14.929688 11.830078 14.929688 z "
         transform="scale(0.26458333)" />
      <rect
         style="fill:#000000;stroke:none;stroke-width:0;stroke-linejoin:round;stroke-miterlimit:4;stroke-dasharray:none;stroke-opacity:1;paint-order:markers stroke fill"
         id="rect2692-4"
         width="0.40000001"
         height="2"
         x="2.7383029"
         y="0.90359849"
         ry="0.25" />
      <rect
         style="fill:#000000;stroke:none;stroke-width:0;stroke-linejoin:round;stroke-miterlimit:4;stroke-dasharray:none;stroke-opacity:1;paint-order:markers stroke fill"
         id="rect2692-4-3"
         width="0.40000001"
         height="2"
         x="4.9117875"
         y="0.92337453"
         ry="0.25" />
      <rect
         style="fill:#000000;stroke:none;stroke-width:0;stroke-linejoin:round;stroke-miterlimit:4;stroke-dasharray:none;stroke-opacity:1;paint-order:markers stroke fill"
         id="rect2692-4-0"
         width="0.40000001"
         height="2"
         x="7.3902297"
         y="0.91046596"
         ry="0.25" />
      <rect
         style="fill:#000000;stroke:none;stroke-width:0;stroke-linejoin:round;stroke-miterlimit:4;stroke-dasharray:none;stroke-opacity:1;paint-order:markers stroke fill"
         id="rect2692-4-0-1"
         width="0.40000001"
         height="2"
         x="9.4943237"
         y="0.92337447"
         ry="0.25" />
      <rect
         style="opacity:1;fill:#000000;stroke:none;stroke-width:0;stroke-linejoin:round;stroke-miterlimit:4;stroke-dasharray:none;stroke-opacity:1;paint-order:markers stroke fill"
         id="rect3744"
         width="0.89069015"
         height="0.89069015"
         x="7.3368998"
         y="5.7830324"
         ry="0.11219473" />
      <rect
         style="fill:#000000;stroke:none;stroke-width:0;stroke-linejoin:round;stroke-miterlimit:4;stroke-dasharray:none;stroke-opacity:1;paint-order:markers stroke fill"
         id="rect3744-8"
         width="0.89069015"
         height="0.89069015"
         x="7.3368998"
         y="4.3179111"
         ry="0.11219473" />
      <rect
         style="fill:#000000;stroke:none;stroke-width:0;stroke-linejoin:round;stroke-miterlimit:4;stroke-dasharray:none;stroke-opacity:1;paint-order:markers stroke fill"
         id="rect3744-4"
         width="0.89069015"
         height="0.89069015"
         x="8.6939116"
         y="5.7830324"
         ry="0.11219473" />
      <rect
         style="fill:#000000;stroke:none;stroke-width:0;stroke-linejoin:round;stroke-miterlimit:4;stroke-dasharray:none;stroke-opacity:1;paint-order:markers stroke fill"
         id="rect3744-0"
         width="0.89069015"
         height="0.89069015"
         x="8.6939116"
         y="4.3179111"
         ry="0.11219473" />
      <rect
         style="fill:#000000;stroke:none;stroke-width:0;stroke-linejoin:round;stroke-miterlimit:4;stroke-dasharray:none;stroke-opacity:1;paint-order:markers stroke fill"
         id="rect3744-2"
         width="0.89069015"
         height="0.89069015"
         x="4.6228757"
         y="8.7713623"
         ry="0.11219473" />
      <rect
         style="fill:#000000;stroke:none;stroke-width:0;stroke-linejoin:round;stroke-miterlimit:4;stroke-dasharray:none;stroke-opacity:1;paint-order:markers stroke fill"
         id="rect3744-5"
         width="0.89069015"
         height="0.89069015"
         x="4.6228757"
         y="5.7830324"
         ry="0.11219473" />
      <rect
         style="fill:#000000;stroke:none;stroke-width:0;stroke-linejoin:round;stroke-miterlimit:4;stroke-dasharray:none;stroke-opacity:1;paint-order:markers stroke fill"
         id="rect3744-57"
         width="0.89069015"
         height="0.89069015"
         x="5.979888"
         y="5.7830324"
         ry="0.11219473" />
      <rect
         style="fill:#000000;stroke:none;stroke-width:0;stroke-linejoin:round;stroke-miterlimit:4;stroke-dasharray:none;stroke-opacity:1;paint-order:markers stroke fill"
         id="rect3744-56"
         width="0.89069015"
         height="0.89069015"
         x="3.2658637"
         y="5.7830324"
         ry="0.11219473" />
      <rect
         style="fill:#000000;stroke:none;stroke-width:0;stroke-linejoin:round;stroke-miterlimit:4;stroke-dasharray:none;stroke-opacity:1;paint-order:markers stroke fill"
         id="rect3744-26"
         width="0.89069015"
         height="0.89069015"
         x="3.2658637"
         y="8.7713633"
         ry="0.11219473" />
      <rect
         style="fill:#000000;stroke:none;stroke-width:0;stroke-linejoin:round;stroke-miterlimit:4;stroke-dasharray:none;stroke-opacity:1;paint-order:markers stroke fill"
         id="rect3744-86"
         width="0.89069015"
         height="0.89069015"
         x="7.3368998"
         y="7.2481532"
         ry="0.11219473" />
      <rect
         style="fill:#000000;stroke:none;stroke-width:0;stroke-linejoin:round;stroke-miterlimit:4;stroke-dasharray:none;stroke-opacity:1;paint-order:markers stroke fill"
         id="rect3744-4-7"
         width="0.89069015"
         height="0.89069015"
         x="8.6939116"
         y="7.2481537"
         ry="0.11219473" />
      <rect
         style="fill:#000000;stroke:none;stroke-width:0;stroke-linejoin:round;stroke-miterlimit:4;stroke-dasharray:none;stroke-opacity:1;paint-order:markers stroke fill"
         id="rect3744-5-1"
         width="0.89069015"
         height="0.89069015"
         x="4.6228757"
         y="7.2481532"
         ry="0.11219473" />
      <rect
         style="fill:#000000;stroke:none;stroke-width:0;stroke-linejoin:round;stroke-miterlimit:4;stroke-dasharray:none;stroke-opacity:1;paint-order:markers stroke fill"
         id="rect3744-57-1"
         width="0.89069015"
         height="0.89069015"
         x="5.979888"
         y="7.2481532"
         ry="0.11219473" />
      <rect
         style="fill:#000000;stroke:none;stroke-width:0;stroke-linejoin:round;stroke-miterlimit:4;stroke-dasharray:none;stroke-opacity:1;paint-order:markers stroke fill"
         id="rect3744-56-5"
         width="0.89069015"
         height="0.89069015"
         x="3.2658637"
         y="7.2481532"
         ry="0.11219473" />
    </g>
  </g>
</svg>
